<svg viewBox="0 0 780 230" xmlns="http://www.w3.org/2000/svg" font-family="JetBrains Mono, monospace" font-size="12">
<style>g.fl path{stroke-dasharray:6 6;animation:f 1.4s linear infinite}@keyframes f{to{stroke-dashoffset:-24}}</style>
<rect width="780" height="230" rx="14" fill="#11162B"/>
<defs><marker id="ar" markerWidth="9" markerHeight="9" refX="6" refY="4.5" orient="auto"><path d="M0 0L9 4.5L0 9z" fill="#4FD1C5"/></marker></defs>
<text x="28" y="34" fill="#E8EAF2" font-size="15" font-weight="bold">From scanned statements to a clear model</text>
<g>
<rect x="30" y="70" width="150" height="92" rx="10" fill="#2a1a2e" stroke="#F0A8A8" stroke-opacity=".5"/>
<text x="46" y="100" fill="#F0A8A8" font-size="12">Scanned FS</text>
<text x="46" y="120" fill="#c9a0a0" font-size="10">hard copy pages</text>
<text x="46" y="138" fill="#c9a0a0" font-size="10">hand transcribed</text>
</g>
<g class="fl" stroke="#4FD1C5" stroke-opacity=".7" stroke-width="2" fill="none"><path d="M182 116 H222" marker-end="url(#ar)"/></g>
<g>
<rect x="226" y="70" width="150" height="92" rx="10" fill="#1B2240" stroke="#8B9BFF" stroke-opacity=".5"/>
<text x="242" y="100" fill="#8B9BFF" font-size="12">Structured data</text>
<text x="242" y="120" fill="#9AA3B8" font-size="10">digitised, cleaned</text>
<text x="242" y="138" fill="#9AA3B8" font-size="10">same basis</text>
</g>
<g class="fl" stroke="#4FD1C5" stroke-opacity=".7" stroke-width="2" fill="none"><path d="M378 116 H418" marker-end="url(#ar)"/></g>
<g>
<rect x="422" y="70" width="150" height="92" rx="10" fill="#1B2240" stroke="#4FD1C5" stroke-opacity=".6"/>
<text x="438" y="100" fill="#4FD1C5" font-size="12">Valuation</text>
<text x="438" y="120" fill="#9AA3B8" font-size="10">EBITDA multiple</text>
<text x="438" y="138" fill="#9AA3B8" font-size="10">normalised</text>
</g>
<g class="fl" stroke="#4FD1C5" stroke-opacity=".7" stroke-width="2" fill="none"><path d="M574 116 H614" marker-end="url(#ar)"/></g>
<g>
<rect x="618" y="70" width="140" height="92" rx="10" fill="#16223e" stroke="#4FD1C5" stroke-opacity=".6"/>
<text x="634" y="100" fill="#E8EAF2" font-size="12">Scenarios</text>
<text x="634" y="120" fill="#4FD1C5" font-size="10">low / mid / high</text>
<text x="634" y="138" fill="#9AA3B8" font-size="10">per target</text>
</g>
</svg>
