<svg viewBox="0 0 780 440" xmlns="http://www.w3.org/2000/svg" font-family="IBM Plex Sans, system-ui, sans-serif">
<rect width="780" height="440" rx="0" fill="#141417"/>
<rect width="780" height="44" rx="0" fill="#1A1A1F"/><rect y="30" width="780" height="14" fill="#1A1A1F"/>
<text x="20" y="28" fill="#EDEDF0" font-size="14" font-weight="700">Submissions · Weekly Tracking</text>
<text x="640" y="28" fill="#9A9AA6" font-size="11" font-family="IBM Plex Mono, monospace">live · sharepoint model</text>
<g font-size="11">
<rect x="20" y="60" width="230" height="70" rx="0" fill="#1A1A1F"/><text x="35" y="85" fill="#9A9AA6">This week</text><text x="35" y="113" fill="#9A9AA6" font-size="22" font-weight="700">512 submissions</text>
<rect x="265" y="60" width="230" height="70" rx="0" fill="#1A1A1F"/><text x="280" y="85" fill="#9A9AA6">Archive parsed</text><text x="280" y="113" fill="#EDEDF0" font-size="22" font-weight="700">120,438</text>
<rect x="510" y="60" width="250" height="70" rx="0" fill="#1A1A1F"/><text x="525" y="85" fill="#9A9AA6">Parsing accuracy</text><text x="525" y="113" fill="#EDEDF0" font-size="22" font-weight="700">99.6%</text>
</g>
<rect x="20" y="150" width="740" height="270" rx="0" fill="#1A1A1F"/>
<text x="35" y="178" fill="#EDEDF0" font-size="12" font-weight="700">Weekly volume, rolling 12 weeks</text>
<g fill="#9A9AA6" opacity=".85">
<rect x="60" y="330" width="38" height="70"/><rect x="116" y="310" width="38" height="90"/><rect x="172" y="345" width="38" height="55"/>
<rect x="228" y="295" width="38" height="105"/><rect x="284" y="305" width="38" height="95"/><rect x="340" y="280" width="38" height="120"/>
<rect x="396" y="320" width="38" height="80"/><rect x="452" y="270" width="38" height="130"/><rect x="508" y="290" width="38" height="110"/>
<rect x="564" y="250" width="38" height="150"/><rect x="620" y="265" width="38" height="135"/><rect x="676" y="235" width="38" height="165" fill="#EDEDF0"/>
</g>
<line x1="40" y1="400" x2="740" y2="400" stroke="#383843"/>
<text x="676" y="225" fill="#EDEDF0" font-size="10" font-family="IBM Plex Mono, monospace">latest</text>
</svg>
